<?xml version="1.0" encoding="UTF-8" standalone="no"?>
<!DOCTYPE svg PUBLIC "-//W3C//DTD SVG 1.1//EN" "http://www.w3.org/Graphics/SVG/1.1/DTD/svg11.dtd">
<svg width="31.6mm" height="15.2mm" viewBox="0 0 374 180" version="1.1" xmlns="http://www.w3.org/2000/svg" xmlns:xlink="http://www.w3.org/1999/xlink" xml:space="preserve" xmlns:serif="http://www.serif.com/" style="fill-rule:evenodd;clip-rule:evenodd;stroke-linejoin:round;stroke-miterlimit:2;">
    <g id="breadboard" transform="matrix(1,0,0,1,-93.619,-243.353)">
        <g>
            <g>
                <g transform="matrix(1,0,0,1,43.7008,43.7008)">
                    <path d="M418.159,199.717L63.828,199.717L63.828,379.18L418.159,379.18L418.159,199.717ZM406.977,370.583C409.697,370.583 411.904,368.376 411.904,365.656C411.904,362.937 409.697,360.729 406.977,360.729L398.774,360.729C396.055,360.729 393.847,362.937 393.847,365.656C393.847,368.376 396.055,370.583 398.774,370.583L406.977,370.583ZM331.235,370.583C333.954,370.583 336.162,368.376 336.162,365.656C336.162,362.937 333.954,360.729 331.235,360.729L323.032,360.729C320.313,360.729 318.105,362.937 318.105,365.656C318.105,368.376 320.313,370.583 323.032,370.583L331.235,370.583ZM320.482,336.437C320.482,333.718 318.274,331.51 315.555,331.51C312.836,331.51 310.628,333.718 310.628,336.437L310.628,344.64C310.628,347.359 312.836,349.567 315.555,349.567C318.274,349.567 320.482,347.359 320.482,344.64L320.482,336.437ZM315.555,309.812C318.274,309.812 320.482,312.019 320.482,314.739C320.482,317.458 318.274,319.666 315.555,319.666C312.836,319.666 310.628,317.458 310.628,314.739C310.628,312.019 312.836,309.812 315.555,309.812ZM315.555,285.67C318.274,285.67 320.482,287.878 320.482,290.597C320.482,293.316 318.274,295.524 315.555,295.524C312.836,295.524 310.628,293.316 310.628,290.597C310.628,287.878 312.836,285.67 315.555,285.67ZM315.555,262.512C318.274,262.512 320.482,264.719 320.482,267.439C320.482,270.158 318.274,272.366 315.555,272.366C312.836,272.366 310.628,270.158 310.628,267.439C310.628,264.719 312.836,262.512 315.555,262.512ZM320.482,235.902C320.482,233.183 318.274,230.975 315.555,230.975C312.836,230.975 310.628,233.183 310.628,235.902L310.628,244.105C310.628,246.824 312.836,249.032 315.555,249.032C318.274,249.032 320.482,246.824 320.482,244.105L320.482,235.902ZM406.977,220.465C409.697,220.465 411.904,218.257 411.904,215.538C411.904,212.818 409.697,210.611 406.977,210.611L398.774,210.611C396.055,210.611 393.847,212.818 393.847,215.538C393.847,218.257 396.055,220.465 398.774,220.465L406.977,220.465ZM331.235,220.465C333.954,220.465 336.162,218.257 336.162,215.538C336.162,212.818 333.954,210.611 331.235,210.611L323.032,210.611C320.313,210.611 318.105,212.818 318.105,215.538C318.105,218.257 320.313,220.465 323.032,220.465L331.235,220.465Z" style="fill:rgb(0,118,0);"/>
                </g>
                <g transform="matrix(1,0,0,1,42.6472,43.5675)">
                    <rect x="176.267" y="215.448" width="18.608" height="18.195" style="fill:rgb(242,242,242);"/>
                </g>
                <g id="rect307" transform="matrix(-1.136,-1.39499e-16,2.56442e-16,-2.09569,313.074,302.913)">
                    <path d="M85.463,18.188C85.463,17.845 84.949,17.566 84.316,17.566L80.905,17.566C80.272,17.566 79.758,17.845 79.758,18.188L79.758,19.431C79.758,19.774 80.272,20.053 80.905,20.053L84.316,20.053C84.949,20.053 85.463,19.774 85.463,19.431L85.463,18.188Z" style="fill:rgb(224,225,224);"/>
                </g>
                <g id="rect3071" serif:id="rect307" transform="matrix(-1.136,-1.39499e-16,2.56442e-16,-2.09569,313.074,312.151)">
                    <path d="M85.463,18.188C85.463,17.845 84.949,17.566 84.316,17.566L80.905,17.566C80.272,17.566 79.758,17.845 79.758,18.188L79.758,19.431C79.758,19.774 80.272,20.053 80.905,20.053L84.316,20.053C84.949,20.053 85.463,19.774 85.463,19.431L85.463,18.188Z" style="fill:rgb(224,225,224);"/>
                </g>
                <g id="rect3072" serif:id="rect307" transform="matrix(-1.136,-1.39499e-16,2.56442e-16,-2.09569,331.054,312.151)">
                    <path d="M85.463,18.188C85.463,17.845 84.949,17.566 84.316,17.566L80.905,17.566C80.272,17.566 79.758,17.845 79.758,18.188L79.758,19.431C79.758,19.774 80.272,20.053 80.905,20.053L84.316,20.053C84.949,20.053 85.463,19.774 85.463,19.431L85.463,18.188Z" style="fill:rgb(224,225,224);"/>
                </g>
                <g id="rect3073" serif:id="rect307" transform="matrix(-1.136,-1.39499e-16,2.56442e-16,-2.09569,331.054,302.913)">
                    <path d="M85.463,18.188C85.463,17.845 84.949,17.566 84.316,17.566L80.905,17.566C80.272,17.566 79.758,17.845 79.758,18.188L79.758,19.431C79.758,19.774 80.272,20.053 80.905,20.053L84.316,20.053C84.949,20.053 85.463,19.774 85.463,19.431L85.463,18.188Z" style="fill:rgb(224,225,224);"/>
                </g>
                <g transform="matrix(1,0,0,1,43.7008,43.7008)">
                    <path d="M323.207,236.084C323.207,231.861 319.778,228.432 315.555,228.432C311.332,228.432 307.903,231.861 307.903,236.084L307.903,243.923C307.903,248.146 311.332,251.575 315.555,251.575C319.778,251.575 323.207,248.146 323.207,243.923L323.207,236.084ZM320.482,235.902C320.482,233.183 318.274,230.975 315.555,230.975C312.836,230.975 310.628,233.183 310.628,235.902L310.628,244.105C310.628,246.824 312.836,249.032 315.555,249.032C318.274,249.032 320.482,246.824 320.482,244.105L320.482,235.902Z" style="fill:rgb(140,134,99);"/>
                </g>
                <g transform="matrix(1,0,0,1,43.7008,43.7008)">
                    <path d="M315.555,259.787C319.778,259.787 323.207,263.215 323.207,267.439C323.207,271.662 319.778,275.091 315.555,275.091C311.332,275.091 307.903,271.662 307.903,267.439C307.903,263.215 311.332,259.787 315.555,259.787ZM315.555,262.512C318.274,262.512 320.482,264.719 320.482,267.439C320.482,270.158 318.274,272.366 315.555,272.366C312.836,272.366 310.628,270.158 310.628,267.439C310.628,264.719 312.836,262.512 315.555,262.512Z" style="fill:rgb(140,134,99);"/>
                </g>
                <g transform="matrix(1,0,0,1,43.7008,43.7008)">
                    <path d="M315.555,282.945C319.778,282.945 323.207,286.374 323.207,290.597C323.207,294.82 319.778,298.249 315.555,298.249C311.332,298.249 307.903,294.82 307.903,290.597C307.903,286.374 311.332,282.945 315.555,282.945ZM315.555,285.67C318.274,285.67 320.482,287.878 320.482,290.597C320.482,293.316 318.274,295.524 315.555,295.524C312.836,295.524 310.628,293.316 310.628,290.597C310.628,287.878 312.836,285.67 315.555,285.67Z" style="fill:rgb(140,134,99);"/>
                </g>
                <g transform="matrix(1,0,0,1,43.7008,43.7008)">
                    <path d="M315.555,307.087C319.778,307.087 323.207,310.515 323.207,314.739C323.207,318.962 319.778,322.391 315.555,322.391C311.332,322.391 307.903,318.962 307.903,314.739C307.903,310.515 311.332,307.087 315.555,307.087ZM315.555,309.812C318.274,309.812 320.482,312.019 320.482,314.739C320.482,317.458 318.274,319.666 315.555,319.666C312.836,319.666 310.628,317.458 310.628,314.739C310.628,312.019 312.836,309.812 315.555,309.812Z" style="fill:rgb(140,134,99);"/>
                </g>
                <g transform="matrix(1,0,0,1,43.7008,43.7008)">
                    <path d="M323.207,336.619C323.207,332.396 319.778,328.967 315.555,328.967C311.332,328.967 307.903,332.396 307.903,336.619L307.903,344.458C307.903,348.681 311.332,352.11 315.555,352.11C319.778,352.11 323.207,348.681 323.207,344.458L323.207,336.619ZM320.482,336.437C320.482,333.718 318.274,331.51 315.555,331.51C312.836,331.51 310.628,333.718 310.628,336.437L310.628,344.64C310.628,347.359 312.836,349.567 315.555,349.567C318.274,349.567 320.482,347.359 320.482,344.64L320.482,336.437Z" style="fill:rgb(140,134,99);"/>
                </g>
                <g transform="matrix(1,0,0,1,43.7008,43.7008)">
                    <path d="M331.053,223.19C335.276,223.19 338.705,219.761 338.705,215.538C338.705,211.314 335.276,207.886 331.053,207.886L323.214,207.886C318.991,207.886 315.562,211.314 315.562,215.538C315.562,219.761 318.991,223.19 323.214,223.19L331.053,223.19ZM331.235,220.465C333.954,220.465 336.162,218.257 336.162,215.538C336.162,212.818 333.954,210.611 331.235,210.611L323.032,210.611C320.313,210.611 318.105,212.818 318.105,215.538C318.105,218.257 320.313,220.465 323.032,220.465L331.235,220.465Z" style="fill:rgb(140,134,99);"/>
                </g>
                <g transform="matrix(1,0,0,1,43.7008,43.7008)">
                    <path d="M406.795,223.19C411.018,223.19 414.447,219.761 414.447,215.538C414.447,211.314 411.018,207.886 406.795,207.886L398.956,207.886C394.733,207.886 391.304,211.314 391.304,215.538C391.304,219.761 394.733,223.19 398.956,223.19L406.795,223.19ZM406.977,220.465C409.697,220.465 411.904,218.257 411.904,215.538C411.904,212.818 409.697,210.611 406.977,210.611L398.774,210.611C396.055,210.611 393.847,212.818 393.847,215.538C393.847,218.257 396.055,220.465 398.774,220.465L406.977,220.465Z" style="fill:rgb(140,134,99);"/>
                </g>
                <g transform="matrix(1,0,0,1,43.7008,43.7008)">
                    <path d="M331.053,373.308C335.276,373.308 338.705,369.88 338.705,365.656C338.705,361.433 335.276,358.004 331.053,358.004L323.214,358.004C318.991,358.004 315.562,361.433 315.562,365.656C315.562,369.88 318.991,373.308 323.214,373.308L331.053,373.308ZM331.235,370.583C333.954,370.583 336.162,368.376 336.162,365.656C336.162,362.937 333.954,360.729 331.235,360.729L323.032,360.729C320.313,360.729 318.105,362.937 318.105,365.656C318.105,368.376 320.313,370.583 323.032,370.583L331.235,370.583Z" style="fill:rgb(140,134,99);"/>
                </g>
                <g transform="matrix(1,0,0,1,43.7008,43.7008)">
                    <path d="M406.795,373.308C411.018,373.308 414.447,369.88 414.447,365.656C414.447,361.433 411.018,358.004 406.795,358.004L398.956,358.004C394.733,358.004 391.304,361.433 391.304,365.656C391.304,369.88 394.733,373.308 398.956,373.308L406.795,373.308ZM406.977,370.583C409.697,370.583 411.904,368.376 411.904,365.656C411.904,362.937 409.697,360.729 406.977,360.729L398.774,360.729C396.055,360.729 393.847,362.937 393.847,365.656C393.847,368.376 396.055,370.583 398.774,370.583L406.977,370.583Z" style="fill:rgb(140,134,99);"/>
                </g>
                <g id="background" transform="matrix(5.10101e-16,8.33058,8.3305,-5.10096e-16,364.918,273.168)">
                    <path d="M14.113,11.348L14.113,5.213L14.4,5.213L14.4,2.876L14.113,2.876L14.113,0L0,0L0,2.876L0.287,2.876L0.287,5.213L0,5.213L0,11.348L14.113,11.348Z" style="fill:rgb(0,106,255);fill-rule:nonzero;"/>
                </g>
                <g id="upperstripe" transform="matrix(2.55135e-16,4.16667,4.16667,-2.55135e-16,504.682,213.17)">
                    <rect x="14.652" y="-33.21" width="27.746" height="0.829" style="fill:rgb(131,173,231);"/>
                </g>
                <g id="lowerrect" transform="matrix(2.55135e-16,4.16667,4.16667,-2.55135e-16,504.682,213.17)">
                    <rect x="14.4" y="-21.163" width="28.217" height="10.289" style="fill:rgb(0,62,148);"/>
                </g>
                <g id="path15902" transform="matrix(2.55135e-16,4.16667,-4.16667,2.55135e-16,504.682,213.17)">
                    <path d="M21.458,21.748C24.201,21.748 26.435,24.024 26.435,26.869L16.479,26.869C16.477,24.105 18.709,21.748 21.458,21.748L21.458,21.748Z" style="fill:rgb(131,173,231);fill-rule:nonzero;"/>
                </g>
                <g id="path15904" transform="matrix(2.55135e-16,4.16667,-4.16667,2.55135e-16,504.682,213.17)">
                    <path d="M21.458,31.869C18.711,31.869 16.479,29.592 16.479,26.747L26.435,26.747C26.435,29.511 24.205,31.869 21.458,31.869L21.458,31.869Z" style="fill:rgb(0,54,148);fill-rule:nonzero;"/>
                </g>
                <g id="path15908" transform="matrix(2.55135e-16,4.16667,-4.16667,2.55135e-16,504.682,213.17)">
                    <path d="M21.458,22.699C19.228,22.699 17.417,24.569 17.417,26.763C17.417,29.04 19.228,30.828 21.458,30.828C23.686,30.828 25.496,28.958 25.496,26.763C25.494,24.487 23.684,22.699 21.458,22.699Z" style="fill:rgb(139,139,139);fill-rule:nonzero;"/>
                </g>
                <g id="path15910" transform="matrix(2.55135e-16,4.16667,-4.16667,2.55135e-16,504.682,213.17)">
                    <path d="M21.458,30.844C23.646,30.844 25.418,29.056 25.418,26.78C25.418,24.585 23.646,22.796 21.458,22.796C19.269,22.796 17.494,24.585 17.494,26.78C17.492,28.975 19.267,30.844 21.458,30.844M21.458,30.844C19.191,30.844 17.343,28.975 17.343,26.698C17.343,24.422 19.187,22.553 21.458,22.553C23.721,22.553 25.569,24.422 25.569,26.698C25.567,28.975 23.723,30.844 21.458,30.844Z" style="fill-rule:nonzero;"/>
                </g>
                <g id="path15914" transform="matrix(2.55135e-16,4.16667,-4.16667,2.55135e-16,504.682,213.17)">
                    <path d="M17.613,27.755C17.541,27.755 17.492,26.942 17.492,26.78C17.492,26.78 17.541,25.967 17.613,25.804L25.298,25.804C25.371,25.804 25.42,26.617 25.42,26.78C25.42,26.78 25.375,27.593 25.298,27.755L17.613,27.755Z" style="fill:rgb(112,112,112);fill-rule:nonzero;"/>
                </g>
                <g id="rect15918" transform="matrix(2.55135e-16,4.16667,4.16667,-2.55135e-16,504.682,213.17)">
                    <rect x="20.523" y="-30.223" width="1.865" height="6.833" style="fill:rgb(84,82,82);"/>
                </g>
                <g id="rect15920" transform="matrix(2.55135e-16,4.16667,4.16667,-2.55135e-16,504.682,213.17)">
                    <rect x="18.519" y="-27.752" width="5.877" height="1.896" style="fill:rgb(84,82,82);"/>
                </g>
                <g id="path15924" transform="matrix(2.55135e-16,4.16667,-4.16667,2.55135e-16,504.682,213.17)">
                    <path d="M21.458,30.511C23.458,30.511 25.091,28.885 25.091,26.772C25.091,24.739 23.458,23.032 21.458,23.032C19.453,23.032 17.821,24.658 17.821,26.772C17.819,28.804 19.451,30.511 21.458,30.511M21.458,30.511C19.269,30.511 17.494,28.723 17.494,26.446C17.494,24.252 19.269,22.463 21.458,22.463C23.646,22.463 25.418,24.252 25.418,26.446C25.422,28.641 23.646,30.511 21.458,30.511Z" style="fill-rule:nonzero;"/>
                </g>
                <g id="rect15931" transform="matrix(2.55135e-16,4.16667,4.16667,-2.55135e-16,504.682,213.17)">
                    <rect x="16.477" y="-20.022" width="9.958" height="4.052" style="fill:rgb(0,66,158);"/>
                </g>
                <g id="rect15933" transform="matrix(2.55135e-16,4.16667,4.16667,-2.55135e-16,504.682,213.17)">
                    <rect x="16.477" y="-15.973" width="9.958" height="4.204" style="fill:rgb(0,83,199);"/>
                </g>
                <g id="rect15935" transform="matrix(2.55135e-16,4.16667,4.16667,-2.55135e-16,504.682,213.17)">
                    <rect x="19.018" y="-15.914" width="4.875" height="5.049" style="fill:rgb(0,83,199);"/>
                </g>
                <g id="rect15937" transform="matrix(2.55135e-16,4.16667,4.16667,-2.55135e-16,504.682,213.17)">
                    <rect x="16.884" y="-19.665" width="9.147" height="7.61" style="fill:rgb(141,140,140);"/>
                </g>
                <g id="path15939" transform="matrix(2.55135e-16,4.16667,-4.16667,2.55135e-16,504.682,213.17)">
                    <path d="M21.458,12.496C23.627,12.496 25.392,13.797 25.392,15.423L17.515,15.423C17.519,13.797 19.283,12.497 21.458,12.497L21.458,12.496Z" style="fill:rgb(160,160,160);fill-rule:nonzero;"/>
                </g>
                <g id="path15941" transform="matrix(2.55135e-16,4.16667,-4.16667,2.55135e-16,504.682,213.17)">
                    <path d="M21.458,18.35C19.285,18.35 17.515,17.049 17.515,15.423L25.392,15.423C25.391,17.049 23.631,18.35 21.458,18.35L21.458,18.35Z" style="fill:rgb(86,86,86);fill-rule:nonzero;"/>
                </g>
                <g id="ellipse15943" transform="matrix(2.55135e-16,4.16667,4.16667,-2.55135e-16,504.682,213.17)">
                    <ellipse cx="21.456" cy="-15.427" rx="3.053" ry="2.268" style="fill:rgb(56,56,56);"/>
                </g>
                <g id="polygon15945" transform="matrix(5.10101e-16,8.33058,8.3305,-5.10096e-16,364.918,273.168)">
                    <path d="M2.221,8.386L1.572,7.461L1.243,7.436L1.304,6.916L5.818,6.98L5.755,7.499L5.543,7.436L4.825,8.386L2.221,8.386Z" style="fill:rgb(145,146,145);fill-rule:nonzero;"/>
                </g>
                <g id="path15947" transform="matrix(2.55135e-16,4.16667,-4.16667,2.55135e-16,504.682,213.17)">
                    <path d="M25.78,19.463L25.78,18.65L25.285,18.65L23.986,16.862L18.965,16.862L17.645,18.65L17.137,18.65L17.137,19.463L25.78,19.463M26.031,19.463L16.884,19.463L16.884,18.325L17.443,18.325L18.84,16.456L24.107,16.456L25.481,18.325L26.027,18.325L26.031,19.463Z" style="fill:rgb(87,88,90);fill-rule:nonzero;"/>
                </g>
                <g id="rect15953" transform="matrix(2.55135e-16,4.16667,4.16667,-2.55135e-16,504.682,213.17)">
                    <rect x="19.406" y="-12.083" width="4.103" height="3" style="fill:rgb(140,140,140);"/>
                </g>
                <g id="rect330201" transform="matrix(2.55135e-16,4.16667,4.16667,-2.55135e-16,504.682,213.17)">
                    <rect x="19.336" y="-17.73" width="4.538" height="8.649" style="fill:none;"/>
                </g>
                <g id="path15957" transform="matrix(2.55135e-16,4.16667,-4.16667,2.55135e-16,504.682,213.17)">
                    <path d="M35.853,21.748C38.596,21.748 40.83,24.024 40.83,26.869L30.874,26.869C30.872,24.105 33.104,21.748 35.853,21.748L35.853,21.748Z" style="fill:rgb(131,173,231);fill-rule:nonzero;"/>
                </g>
                <g id="path15959" transform="matrix(2.55135e-16,4.16667,-4.16667,2.55135e-16,504.682,213.17)">
                    <path d="M35.853,31.869C33.106,31.869 30.874,29.592 30.874,26.747L40.83,26.747C40.83,29.511 38.6,31.869 35.853,31.869L35.853,31.869Z" style="fill:rgb(0,83,199);fill-rule:nonzero;"/>
                </g>
                <g id="path15963" transform="matrix(2.55135e-16,4.16667,-4.16667,2.55135e-16,504.682,213.17)">
                    <path d="M35.853,22.699C33.623,22.699 31.813,24.569 31.813,26.763C31.813,29.04 33.623,30.828 35.853,30.828C38.081,30.828 39.892,28.958 39.892,26.763C39.89,24.487 38.079,22.699 35.853,22.699Z" style="fill:rgb(139,139,139);fill-rule:nonzero;"/>
                </g>
                <g id="path15965" transform="matrix(2.55135e-16,4.16667,-4.16667,2.55135e-16,504.682,213.17)">
                    <path d="M35.853,30.844C38.042,30.844 39.813,29.056 39.813,26.78C39.813,24.585 38.042,22.796 35.853,22.796C33.664,22.796 31.889,24.585 31.889,26.78C31.887,28.975 33.662,30.844 35.853,30.844M35.853,30.844C33.586,30.844 31.738,28.975 31.738,26.698C31.738,24.422 33.582,22.553 35.853,22.553C38.116,22.553 39.964,24.422 39.964,26.698C39.962,28.975 38.118,30.844 35.853,30.844Z" style="fill-rule:nonzero;"/>
                </g>
                <g id="path15969" transform="matrix(2.55135e-16,4.16667,-4.16667,2.55135e-16,504.682,213.17)">
                    <path d="M32.009,27.755C31.936,27.755 31.887,26.942 31.887,26.78C31.887,26.78 31.936,25.967 32.009,25.804L39.694,25.804C39.766,25.804 39.815,26.617 39.815,26.78C39.815,26.78 39.77,27.593 39.694,27.755L32.009,27.755Z" style="fill:rgb(112,112,112);fill-rule:nonzero;"/>
                </g>
                <g id="rect15973" transform="matrix(2.55135e-16,4.16667,4.16667,-2.55135e-16,504.682,213.17)">
                    <rect x="34.919" y="-30.223" width="1.865" height="6.833" style="fill:rgb(84,82,82);"/>
                </g>
                <g id="rect15975" transform="matrix(2.55135e-16,4.16667,4.16667,-2.55135e-16,504.682,213.17)">
                    <rect x="32.914" y="-27.752" width="5.877" height="1.896" style="fill:rgb(84,82,82);"/>
                </g>
                <g id="path15979" transform="matrix(2.55135e-16,4.16667,-4.16667,2.55135e-16,504.682,213.17)">
                    <path d="M35.853,30.511C37.854,30.511 39.486,28.885 39.486,26.772C39.486,24.739 37.854,23.032 35.853,23.032C33.849,23.032 32.216,24.658 32.216,26.772C32.214,28.804 33.847,30.511 35.853,30.511M35.853,30.511C33.664,30.511 31.889,28.723 31.889,26.446C31.889,24.252 33.664,22.463 35.853,22.463C38.042,22.463 39.813,24.252 39.813,26.446C39.817,28.641 38.042,30.511 35.853,30.511Z" style="fill-rule:nonzero;"/>
                </g>
                <g id="rect15986" transform="matrix(2.55135e-16,4.16667,4.16667,-2.55135e-16,504.682,213.17)">
                    <rect x="30.9" y="-20.022" width="9.958" height="4.052" style="fill:rgb(0,66,158);"/>
                </g>
                <g id="rect15988" transform="matrix(2.55135e-16,4.16667,4.16667,-2.55135e-16,504.682,213.17)">
                    <rect x="30.9" y="-15.973" width="9.958" height="4.204" style="fill:rgb(0,83,199);"/>
                </g>
                <g id="rect15990" transform="matrix(2.55135e-16,4.16667,4.16667,-2.55135e-16,504.682,213.17)">
                    <rect x="33.441" y="-15.914" width="4.875" height="5.049" style="fill:rgb(0,83,199);"/>
                </g>
                <g id="rect15992" transform="matrix(2.55135e-16,4.16667,4.16667,-2.55135e-16,504.682,213.17)">
                    <rect x="31.307" y="-19.665" width="9.147" height="7.61" style="fill:rgb(141,140,140);"/>
                </g>
                <g id="path15994" transform="matrix(2.55135e-16,4.16667,-4.16667,2.55135e-16,504.682,213.17)">
                    <path d="M35.881,12.496C38.05,12.496 39.816,13.797 39.816,15.423L31.938,15.423C31.942,13.797 33.706,12.497 35.881,12.497L35.881,12.496Z" style="fill:rgb(160,160,160);fill-rule:nonzero;"/>
                </g>
                <g id="path15996" transform="matrix(2.55135e-16,4.16667,-4.16667,2.55135e-16,504.682,213.17)">
                    <path d="M35.881,18.35C33.708,18.35 31.938,17.049 31.938,15.423L39.816,15.423C39.814,17.049 38.054,18.35 35.881,18.35L35.881,18.35Z" style="fill:rgb(86,86,86);fill-rule:nonzero;"/>
                </g>
                <g id="ellipse15998" transform="matrix(2.55135e-16,4.16667,4.16667,-2.55135e-16,504.682,213.17)">
                    <ellipse cx="35.879" cy="-15.427" rx="3.053" ry="2.268" style="fill:rgb(56,56,56);"/>
                </g>
                <g id="polygon16000" transform="matrix(5.10101e-16,8.33058,8.3305,-5.10096e-16,364.918,333.265)">
                    <path d="M1.572,7.461L1.243,7.436L1.304,6.916L5.818,6.98L5.755,7.499L5.543,7.436L4.825,8.386L2.221,8.386L1.572,7.461Z" style="fill:rgb(145,146,145);fill-rule:nonzero;"/>
                </g>
                <g id="path16002" transform="matrix(2.55135e-16,4.16667,-4.16667,2.55135e-16,504.682,213.17)">
                    <path d="M40.204,19.463L40.204,18.65L39.708,18.65L38.409,16.862L33.388,16.862L32.068,18.65L31.56,18.65L31.56,19.463L40.204,19.463M40.454,19.463L31.307,19.463L31.307,18.325L31.866,18.325L33.263,16.456L38.53,16.456L39.904,18.325L40.45,18.325L40.454,19.463Z" style="fill:rgb(87,88,90);fill-rule:nonzero;"/>
                </g>
                <g id="rect16008" transform="matrix(2.55135e-16,4.16667,4.16667,-2.55135e-16,504.682,213.17)">
                    <rect x="33.829" y="-12.083" width="4.103" height="3" style="fill:rgb(140,140,140);"/>
                </g>
                <g id="rect330203" transform="matrix(2.55135e-16,4.16667,4.16667,-2.55135e-16,504.682,213.17)">
                    <rect x="33.759" y="-17.73" width="4.538" height="8.649" style="fill:none;"/>
                </g>
                <g id="rect3074" serif:id="rect307" transform="matrix(2.04904e-16,-3.33645,3.34633,2.04299e-16,275.022,549.069)">
                    <rect x="79.758" y="17.566" width="5.705" height="2.487" style="fill:rgb(224,225,224);"/>
                </g>
                <g id="rect309" transform="matrix(2.04904e-16,-3.33645,3.34633,2.04299e-16,275.022,549.069)">
                    <rect x="80.685" y="17.566" width="3.852" height="2.487" style="fill:rgb(191,159,138);"/>
                </g>
                <g id="rect3075" serif:id="rect307" transform="matrix(-3.33645,-4.09202e-16,4.09202e-16,-3.34633,606.477,440.854)">
                    <rect x="79.758" y="17.566" width="5.705" height="2.487" style="fill:rgb(224,225,224);"/>
                </g>
                <g id="rect3091" serif:id="rect309" transform="matrix(-3.33645,-4.09202e-16,4.09202e-16,-3.34633,606.477,440.854)">
                    <rect x="80.685" y="17.566" width="3.852" height="2.487" style="fill:rgb(191,159,138);"/>
                </g>
                <g id="rect3076" serif:id="rect307" transform="matrix(-3.33645,-4.09202e-16,4.09202e-16,-3.34633,503.845,380.142)">
                    <rect x="79.758" y="17.566" width="5.705" height="2.487" style="fill:rgb(224,225,224);"/>
                </g>
                <g id="rect3092" serif:id="rect309" transform="matrix(-3.33645,-4.09202e-16,4.09202e-16,-3.34633,503.845,380.142)">
                    <rect x="80.685" y="17.566" width="3.852" height="2.487" style="fill:rgb(191,159,138);"/>
                </g>
                <g id="rect3077" serif:id="rect307" transform="matrix(-4.08179,-6.39703e-16,6.39703e-16,-6.36534,638.137,517.677)">
                    <rect x="79.758" y="17.566" width="5.705" height="2.487" style="fill:rgb(224,225,224);"/>
                </g>
                <g id="rect3093" serif:id="rect309" transform="matrix(-4.08179,-6.39703e-16,6.39703e-16,-6.36534,638.137,517.677)">
                    <rect x="80.685" y="17.566" width="3.852" height="2.487" style="fill:rgb(191,159,138);"/>
                </g>
                <g id="rect3078" serif:id="rect307" transform="matrix(-3.33645,-4.09202e-16,4.09202e-16,-3.34633,485.678,474.385)">
                    <rect x="79.758" y="17.566" width="5.705" height="2.487" style="fill:rgb(224,225,224);"/>
                </g>
                <g id="rect3094" serif:id="rect309" transform="matrix(-3.33645,-4.09202e-16,4.09202e-16,-3.34633,485.678,474.385)">
                    <rect x="80.685" y="17.566" width="3.852" height="2.487" style="fill:rgb(152,118,106);"/>
                </g>
                <g id="rect3079" serif:id="rect307" transform="matrix(2.03694e-16,3.33645,-3.34633,2.05508e-16,281.644,112.405)">
                    <rect x="79.758" y="17.566" width="5.705" height="2.487" style="fill:rgb(224,225,224);"/>
                </g>
                <g id="rect3095" serif:id="rect309" transform="matrix(2.03694e-16,3.33645,-3.34633,2.05508e-16,281.644,112.405)">
                    <rect x="80.685" y="17.566" width="3.852" height="2.487" style="fill:rgb(152,118,106);"/>
                </g>
                <g id="rect30710" serif:id="rect307" transform="matrix(2.03694e-16,3.33645,-3.34633,2.05508e-16,263.477,80.3348)">
                    <rect x="79.758" y="17.566" width="5.705" height="2.487" style="fill:rgb(224,225,224);"/>
                </g>
                <g id="rect3096" serif:id="rect309" transform="matrix(2.03694e-16,3.33645,-3.34633,2.05508e-16,263.477,80.3348)">
                    <rect x="80.685" y="17.566" width="3.852" height="2.487" style="fill:rgb(51,51,51);"/>
                </g>
                <g id="rect30711" serif:id="rect307" transform="matrix(2.03694e-16,3.33645,-3.34633,2.05508e-16,263.477,44.7114)">
                    <rect x="79.758" y="17.566" width="5.705" height="2.487" style="fill:rgb(224,225,224);"/>
                </g>
                <g id="rect3097" serif:id="rect309" transform="matrix(2.03694e-16,3.33645,-3.34633,2.05508e-16,263.477,44.7114)">
                    <rect x="80.685" y="17.566" width="3.852" height="2.487" style="fill:rgb(51,51,51);"/>
                </g>
                <g id="rect30712" serif:id="rect307" transform="matrix(-3.33645,4.07993e-16,-4.10412e-16,-3.34633,503.845,364.526)">
                    <rect x="79.758" y="17.566" width="5.705" height="2.487" style="fill:rgb(224,225,224);"/>
                </g>
                <g id="rect3098" serif:id="rect309" transform="matrix(-3.33645,4.07993e-16,-4.10412e-16,-3.34633,503.845,364.526)">
                    <rect x="80.685" y="17.566" width="3.852" height="2.487" style="fill:rgb(51,51,51);"/>
                </g>
                <g id="rect30713" serif:id="rect307" transform="matrix(-3.33645,4.07993e-16,-4.10412e-16,-3.34633,503.845,349.625)">
                    <rect x="79.758" y="17.566" width="5.705" height="2.487" style="fill:rgb(224,225,224);"/>
                </g>
                <g id="rect3099" serif:id="rect309" transform="matrix(-3.33645,4.07993e-16,-4.10412e-16,-3.34633,503.845,349.625)">
                    <rect x="80.685" y="17.566" width="3.852" height="2.487" style="fill:rgb(51,51,51);"/>
                </g>
                <g id="rect30714" serif:id="rect307" transform="matrix(1.2855e-16,-3.33645,3.34633,1.27719e-16,190.1,548.631)">
                    <rect x="79.758" y="17.566" width="5.705" height="2.487" style="fill:rgb(224,225,224);"/>
                </g>
                <g id="rect30910" serif:id="rect309" transform="matrix(1.2855e-16,-3.33645,3.34633,1.27719e-16,190.1,548.631)">
                    <rect x="80.685" y="17.566" width="3.852" height="2.487" style="fill:rgb(51,51,51);"/>
                </g>
                <g id="rect30715" serif:id="rect307" transform="matrix(-3.33645,-3.32848e-16,3.32622e-16,-3.34633,568.432,441.16)">
                    <rect x="79.758" y="17.566" width="5.705" height="2.487" style="fill:rgb(224,225,224);"/>
                </g>
                <g id="rect30911" serif:id="rect309" transform="matrix(-3.33645,-3.32848e-16,3.32622e-16,-3.34633,568.432,441.16)">
                    <rect x="80.685" y="17.566" width="3.852" height="2.487" style="fill:rgb(51,51,51);"/>
                </g>
                <g id="rect30912" serif:id="rect309" transform="matrix(-4.74625,-2.85903e-16,1.48804e-15,-13.0473,644.87,637.431)">
                    <rect x="80.685" y="17.566" width="3.852" height="2.487" style="fill:rgb(51,51,51);"/>
                </g>
                <g id="rect30913" serif:id="rect309" transform="matrix(-7.75467,-6.81342e-16,1.27229e-15,-11.8539,869.322,574.245)">
                    <rect x="80.685" y="17.566" width="3.852" height="2.487" style="fill:rgb(51,51,51);"/>
                </g>
                <g id="rect30914" serif:id="rect309" transform="matrix(-2.0661,-1.34187e-16,5.95123e-16,-5.24984,511.015,501.488)">
                    <rect x="80.685" y="17.566" width="3.852" height="2.487" style="fill:rgb(51,51,51);"/>
                </g>
                <g id="rect30716" serif:id="rect307" transform="matrix(-2.48071,-2.64281e-16,1.56408e-16,-1.74578,475.751,396.657)">
                    <path d="M85.463,18.81C85.463,18.123 85.071,17.566 84.588,17.566L80.633,17.566C80.15,17.566 79.758,18.123 79.758,18.81C79.758,19.496 80.15,20.053 80.633,20.053L84.588,20.053C85.071,20.053 85.463,19.496 85.463,18.81Z" style="fill:rgb(224,225,224);"/>
                </g>
                <g id="rect30717" serif:id="rect307" transform="matrix(-2.48071,-2.64281e-16,1.56408e-16,-1.74578,475.751,389.039)">
                    <path d="M85.463,18.81C85.463,18.123 85.071,17.566 84.588,17.566L80.633,17.566C80.15,17.566 79.758,18.123 79.758,18.81C79.758,19.496 80.15,20.053 80.633,20.053L84.588,20.053C85.071,20.053 85.463,19.496 85.463,18.81Z" style="fill:rgb(224,225,224);"/>
                </g>
                <g id="rect30718" serif:id="rect307" transform="matrix(-2.48071,-2.64281e-16,1.56408e-16,-1.74578,475.751,381.352)">
                    <path d="M85.463,18.81C85.463,18.123 85.071,17.566 84.588,17.566L80.633,17.566C80.15,17.566 79.758,18.123 79.758,18.81C79.758,19.496 80.15,20.053 80.633,20.053L84.588,20.053C85.071,20.053 85.463,19.496 85.463,18.81Z" style="fill:rgb(224,225,224);"/>
                </g>
                <g id="rect30719" serif:id="rect307" transform="matrix(-2.48071,-2.64281e-16,1.56408e-16,-1.74578,475.751,373.759)">
                    <path d="M85.463,18.81C85.463,18.123 85.071,17.566 84.588,17.566L80.633,17.566C80.15,17.566 79.758,18.123 79.758,18.81C79.758,19.496 80.15,20.053 80.633,20.053L84.588,20.053C85.071,20.053 85.463,19.496 85.463,18.81Z" style="fill:rgb(224,225,224);"/>
                </g>
                <g id="rect30720" serif:id="rect307" transform="matrix(-2.48071,-2.64281e-16,1.56408e-16,-1.74578,475.751,327.605)">
                    <path d="M85.463,18.81C85.463,18.123 85.071,17.566 84.588,17.566L80.633,17.566C80.15,17.566 79.758,18.123 79.758,18.81C79.758,19.496 80.15,20.053 80.633,20.053L84.588,20.053C85.071,20.053 85.463,19.496 85.463,18.81Z" style="fill:rgb(224,225,224);"/>
                </g>
                <g id="rect30721" serif:id="rect307" transform="matrix(-2.48071,-2.64281e-16,1.56408e-16,-1.74578,475.751,327.605)">
                    <path d="M85.463,18.81C85.463,18.123 85.071,17.566 84.588,17.566L80.633,17.566C80.15,17.566 79.758,18.123 79.758,18.81C79.758,19.496 80.15,20.053 80.633,20.053L84.588,20.053C85.071,20.053 85.463,19.496 85.463,18.81Z" style="fill:rgb(224,225,224);"/>
                </g>
                <g id="rect30722" serif:id="rect307" transform="matrix(-2.48071,-2.64281e-16,1.56408e-16,-1.74578,475.751,335.465)">
                    <path d="M85.463,18.81C85.463,18.123 85.071,17.566 84.588,17.566L80.633,17.566C80.15,17.566 79.758,18.123 79.758,18.81C79.758,19.496 80.15,20.053 80.633,20.053L84.588,20.053C85.071,20.053 85.463,19.496 85.463,18.81Z" style="fill:rgb(224,225,224);"/>
                </g>
                <g id="rect30723" serif:id="rect307" transform="matrix(-2.48071,-2.64281e-16,1.56408e-16,-1.74578,475.751,335.465)">
                    <path d="M85.463,18.81C85.463,18.123 85.071,17.566 84.588,17.566L80.633,17.566C80.15,17.566 79.758,18.123 79.758,18.81C79.758,19.496 80.15,20.053 80.633,20.053L84.588,20.053C85.071,20.053 85.463,19.496 85.463,18.81Z" style="fill:rgb(224,225,224);"/>
                </g>
                <g id="rect30724" serif:id="rect307" transform="matrix(-2.48071,-2.64281e-16,1.56408e-16,-1.74578,475.751,342.965)">
                    <path d="M85.463,18.81C85.463,18.123 85.071,17.566 84.588,17.566L80.633,17.566C80.15,17.566 79.758,18.123 79.758,18.81C79.758,19.496 80.15,20.053 80.633,20.053L84.588,20.053C85.071,20.053 85.463,19.496 85.463,18.81Z" style="fill:rgb(224,225,224);"/>
                </g>
                <g id="rect30725" serif:id="rect307" transform="matrix(-2.48071,-2.64281e-16,1.56408e-16,-1.74578,475.751,350.742)">
                    <path d="M85.463,18.81C85.463,18.123 85.071,17.566 84.588,17.566L80.633,17.566C80.15,17.566 79.758,18.123 79.758,18.81C79.758,19.496 80.15,20.053 80.633,20.053L84.588,20.053C85.071,20.053 85.463,19.496 85.463,18.81Z" style="fill:rgb(224,225,224);"/>
                </g>
                <g id="rect30726" serif:id="rect307" transform="matrix(-2.48071,-2.64281e-16,1.56408e-16,-1.74578,475.751,350.742)">
                    <path d="M85.463,18.81C85.463,18.123 85.071,17.566 84.588,17.566L80.633,17.566C80.15,17.566 79.758,18.123 79.758,18.81C79.758,19.496 80.15,20.053 80.633,20.053L84.588,20.053C85.071,20.053 85.463,19.496 85.463,18.81Z" style="fill:rgb(224,225,224);"/>
                </g>
                <g id="rect30727" serif:id="rect307" transform="matrix(-2.48071,-2.64281e-16,1.56408e-16,-1.74578,475.751,358.242)">
                    <path d="M85.463,18.81C85.463,18.123 85.071,17.566 84.588,17.566L80.633,17.566C80.15,17.566 79.758,18.123 79.758,18.81C79.758,19.496 80.15,20.053 80.633,20.053L84.588,20.053C85.071,20.053 85.463,19.496 85.463,18.81Z" style="fill:rgb(224,225,224);"/>
                </g>
                <g id="rect30728" serif:id="rect307" transform="matrix(-2.48071,-2.64281e-16,1.56408e-16,-1.74578,475.751,365.972)">
                    <path d="M85.463,18.81C85.463,18.123 85.071,17.566 84.588,17.566L80.633,17.566C80.15,17.566 79.758,18.123 79.758,18.81C79.758,19.496 80.15,20.053 80.633,20.053L84.588,20.053C85.071,20.053 85.463,19.496 85.463,18.81Z" style="fill:rgb(224,225,224);"/>
                </g>
                <g id="rect30729" serif:id="rect307" transform="matrix(-2.48071,-2.64281e-16,1.56408e-16,-1.74578,529.365,396.657)">
                    <path d="M85.463,18.81C85.463,18.123 85.071,17.566 84.588,17.566L80.633,17.566C80.15,17.566 79.758,18.123 79.758,18.81C79.758,19.496 80.15,20.053 80.633,20.053L84.588,20.053C85.071,20.053 85.463,19.496 85.463,18.81Z" style="fill:rgb(224,225,224);"/>
                </g>
                <g id="rect30730" serif:id="rect307" transform="matrix(-2.48071,-2.64281e-16,1.56408e-16,-1.74578,529.365,389.039)">
                    <path d="M85.463,18.81C85.463,18.123 85.071,17.566 84.588,17.566L80.633,17.566C80.15,17.566 79.758,18.123 79.758,18.81C79.758,19.496 80.15,20.053 80.633,20.053L84.588,20.053C85.071,20.053 85.463,19.496 85.463,18.81Z" style="fill:rgb(224,225,224);"/>
                </g>
                <g id="rect30731" serif:id="rect307" transform="matrix(-2.48071,-2.64281e-16,1.56408e-16,-1.74578,529.365,381.352)">
                    <path d="M85.463,18.81C85.463,18.123 85.071,17.566 84.588,17.566L80.633,17.566C80.15,17.566 79.758,18.123 79.758,18.81C79.758,19.496 80.15,20.053 80.633,20.053L84.588,20.053C85.071,20.053 85.463,19.496 85.463,18.81Z" style="fill:rgb(224,225,224);"/>
                </g>
                <g id="rect30732" serif:id="rect307" transform="matrix(-2.48071,-2.64281e-16,1.56408e-16,-1.74578,529.365,373.759)">
                    <path d="M85.463,18.81C85.463,18.123 85.071,17.566 84.588,17.566L80.633,17.566C80.15,17.566 79.758,18.123 79.758,18.81C79.758,19.496 80.15,20.053 80.633,20.053L84.588,20.053C85.071,20.053 85.463,19.496 85.463,18.81Z" style="fill:rgb(224,225,224);"/>
                </g>
                <g id="rect30733" serif:id="rect307" transform="matrix(-2.48071,-2.64281e-16,1.56408e-16,-1.74578,529.365,327.605)">
                    <path d="M85.463,18.81C85.463,18.123 85.071,17.566 84.588,17.566L80.633,17.566C80.15,17.566 79.758,18.123 79.758,18.81C79.758,19.496 80.15,20.053 80.633,20.053L84.588,20.053C85.071,20.053 85.463,19.496 85.463,18.81Z" style="fill:rgb(224,225,224);"/>
                </g>
                <g id="rect30734" serif:id="rect307" transform="matrix(-2.48071,-2.64281e-16,1.56408e-16,-1.74578,529.365,327.605)">
                    <path d="M85.463,18.81C85.463,18.123 85.071,17.566 84.588,17.566L80.633,17.566C80.15,17.566 79.758,18.123 79.758,18.81C79.758,19.496 80.15,20.053 80.633,20.053L84.588,20.053C85.071,20.053 85.463,19.496 85.463,18.81Z" style="fill:rgb(224,225,224);"/>
                </g>
                <g id="rect30735" serif:id="rect307" transform="matrix(-2.48071,-2.64281e-16,1.56408e-16,-1.74578,529.365,335.465)">
                    <path d="M85.463,18.81C85.463,18.123 85.071,17.566 84.588,17.566L80.633,17.566C80.15,17.566 79.758,18.123 79.758,18.81C79.758,19.496 80.15,20.053 80.633,20.053L84.588,20.053C85.071,20.053 85.463,19.496 85.463,18.81Z" style="fill:rgb(224,225,224);"/>
                </g>
                <g id="rect30736" serif:id="rect307" transform="matrix(-2.48071,-2.64281e-16,1.56408e-16,-1.74578,529.365,335.465)">
                    <path d="M85.463,18.81C85.463,18.123 85.071,17.566 84.588,17.566L80.633,17.566C80.15,17.566 79.758,18.123 79.758,18.81C79.758,19.496 80.15,20.053 80.633,20.053L84.588,20.053C85.071,20.053 85.463,19.496 85.463,18.81Z" style="fill:rgb(224,225,224);"/>
                </g>
                <g id="rect30737" serif:id="rect307" transform="matrix(-2.48071,-2.64281e-16,1.56408e-16,-1.74578,529.365,342.965)">
                    <path d="M85.463,18.81C85.463,18.123 85.071,17.566 84.588,17.566L80.633,17.566C80.15,17.566 79.758,18.123 79.758,18.81C79.758,19.496 80.15,20.053 80.633,20.053L84.588,20.053C85.071,20.053 85.463,19.496 85.463,18.81Z" style="fill:rgb(224,225,224);"/>
                </g>
                <g id="rect30738" serif:id="rect307" transform="matrix(-2.48071,-2.64281e-16,1.56408e-16,-1.74578,529.365,350.742)">
                    <path d="M85.463,18.81C85.463,18.123 85.071,17.566 84.588,17.566L80.633,17.566C80.15,17.566 79.758,18.123 79.758,18.81C79.758,19.496 80.15,20.053 80.633,20.053L84.588,20.053C85.071,20.053 85.463,19.496 85.463,18.81Z" style="fill:rgb(224,225,224);"/>
                </g>
                <g id="rect30739" serif:id="rect307" transform="matrix(-2.48071,-2.64281e-16,1.56408e-16,-1.74578,529.365,350.742)">
                    <path d="M85.463,18.81C85.463,18.123 85.071,17.566 84.588,17.566L80.633,17.566C80.15,17.566 79.758,18.123 79.758,18.81C79.758,19.496 80.15,20.053 80.633,20.053L84.588,20.053C85.071,20.053 85.463,19.496 85.463,18.81Z" style="fill:rgb(224,225,224);"/>
                </g>
                <g id="rect30740" serif:id="rect307" transform="matrix(-2.48071,-2.64281e-16,1.56408e-16,-1.74578,529.365,358.242)">
                    <path d="M85.463,18.81C85.463,18.123 85.071,17.566 84.588,17.566L80.633,17.566C80.15,17.566 79.758,18.123 79.758,18.81C79.758,19.496 80.15,20.053 80.633,20.053L84.588,20.053C85.071,20.053 85.463,19.496 85.463,18.81Z" style="fill:rgb(224,225,224);"/>
                </g>
                <g id="rect30741" serif:id="rect307" transform="matrix(-2.48071,-2.64281e-16,1.56408e-16,-1.74578,529.365,365.972)">
                    <path d="M85.463,18.81C85.463,18.123 85.071,17.566 84.588,17.566L80.633,17.566C80.15,17.566 79.758,18.123 79.758,18.81C79.758,19.496 80.15,20.053 80.633,20.053L84.588,20.053C85.071,20.053 85.463,19.496 85.463,18.81Z" style="fill:rgb(224,225,224);"/>
                </g>
                <g id="rect30915" serif:id="rect309" transform="matrix(-13.1147,-9.12269e-16,3.45023e-15,-30.6507,1381.05,905.818)">
                    <path d="M84.537,17.636C84.537,17.597 84.464,17.566 84.375,17.566L80.848,17.566C80.758,17.566 80.685,17.597 80.685,17.636L80.685,19.983C80.685,20.022 80.758,20.053 80.848,20.053L84.375,20.053C84.464,20.053 84.537,20.022 84.537,19.983L84.537,17.636Z" style="fill:rgb(51,51,51);"/>
                </g>
                <g transform="matrix(7.5132e-17,-1.227,0.860435,5.26864e-17,-110.878,450.915)">
                    <path d="M138.446,240.308C138.446,238.918 137.654,237.789 136.68,237.789L54.371,237.789C53.396,237.789 52.605,238.918 52.605,240.308L52.605,338.847C52.605,340.237 53.396,341.366 54.371,341.366L136.68,341.366C137.654,341.366 138.446,340.237 138.446,338.847L138.446,240.308Z" style="fill:url(#_Linear1);"/>
                </g>
                <g transform="matrix(0.953917,0,0,0.962032,54.2803,53.7863)">
                    <path d="M279.183,203.627C279.183,202.737 278.454,202.014 277.556,202.014L228.744,202.014C227.846,202.014 227.117,202.737 227.117,203.627L227.117,241.657C227.117,242.548 227.846,243.271 228.744,243.271L277.556,243.271C278.454,243.271 279.183,242.548 279.183,241.657L279.183,203.627Z" style="fill:rgb(195,197,195);"/>
                </g>
                <g transform="matrix(1.37331,0,0,1.26825,-51.632,-14.6092)">
                    <path d="M266.411,222.814C266.411,216.672 261.806,211.685 256.133,211.685L249.08,211.685C243.407,211.685 238.802,216.672 238.802,222.814C238.802,228.957 243.407,233.944 249.08,233.944L256.133,233.944C261.806,233.944 266.411,228.957 266.411,222.814Z" style="fill:rgb(164,164,164);"/>
                </g>
                <g transform="matrix(1.27117,0,0,1.17822,-25.8312,5.45179)">
                    <path d="M266.411,222.814C266.411,216.672 261.789,211.685 256.096,211.685L249.117,211.685C243.424,211.685 238.802,216.672 238.802,222.814C238.802,228.957 243.424,233.944 249.117,233.944L256.096,233.944C261.789,233.944 266.411,228.957 266.411,222.814Z" style="fill:rgb(249,249,249);"/>
                </g>
            </g>
        </g>
        <g transform="matrix(1,0,0,1,-26.1864,-228.21)">
            <g transform="matrix(16.6667,0,0,16.6667,144.799,493.098)">
                <path d="M0.147,-0.739C0.131,-0.736 0.117,-0.726 0.111,-0.712C0.105,-0.699 0.105,-0.684 0.111,-0.672C0.116,-0.66 0.128,-0.65 0.142,-0.646L0.146,-0.644L0.297,-0.644C0.379,-0.644 0.447,-0.644 0.447,-0.644C0.447,-0.643 0.188,-0.2 0.116,-0.077L0.107,-0.061L0.107,0L0.321,0C0.502,0 0.535,-0 0.539,-0.001C0.562,-0.005 0.578,-0.025 0.578,-0.048C0.578,-0.071 0.562,-0.091 0.539,-0.095C0.536,-0.096 0.512,-0.096 0.386,-0.096C0.305,-0.096 0.238,-0.096 0.238,-0.096C0.238,-0.096 0.479,-0.51 0.57,-0.664L0.579,-0.679L0.579,-0.74L0.364,-0.74C0.246,-0.74 0.148,-0.739 0.147,-0.739Z" style="fill:rgb(242,242,242);fill-rule:nonzero;"/>
            </g>
            <g transform="matrix(16.6667,0,0,16.6667,156.715,493.098)">
                <path d="M0.146,-0.739C0.135,-0.737 0.129,-0.733 0.121,-0.725C0.115,-0.719 0.112,-0.715 0.11,-0.708C0.106,-0.698 0.106,-0.695 0.106,-0.643L0.106,-0.595L0.295,-0.353L0.295,-0.199C0.295,-0.032 0.294,-0.04 0.298,-0.031C0.3,-0.025 0.303,-0.021 0.309,-0.014C0.315,-0.008 0.319,-0.005 0.326,-0.003C0.339,0.002 0.351,0.001 0.364,-0.005C0.373,-0.01 0.38,-0.017 0.385,-0.027C0.391,-0.038 0.39,-0.02 0.39,-0.197L0.391,-0.354L0.461,-0.443L0.555,-0.564L0.579,-0.595L0.579,-0.648C0.579,-0.707 0.579,-0.703 0.574,-0.713C0.569,-0.723 0.562,-0.73 0.552,-0.735C0.54,-0.741 0.528,-0.741 0.515,-0.737C0.508,-0.734 0.504,-0.732 0.498,-0.725C0.491,-0.719 0.489,-0.715 0.486,-0.709C0.483,-0.7 0.483,-0.698 0.483,-0.662L0.483,-0.628L0.414,-0.539C0.375,-0.49 0.344,-0.449 0.343,-0.449C0.343,-0.448 0.33,-0.464 0.273,-0.538L0.203,-0.627L0.202,-0.664C0.202,-0.705 0.202,-0.703 0.197,-0.713C0.192,-0.723 0.185,-0.73 0.176,-0.735C0.173,-0.736 0.169,-0.738 0.167,-0.738C0.162,-0.74 0.151,-0.74 0.146,-0.739Z" style="fill:rgb(242,242,242);fill-rule:nonzero;"/>
            </g>
            <g transform="matrix(16.6667,0,0,16.6667,168.632,493.098)">
                <path d="M0.147,-0.739C0.131,-0.736 0.117,-0.726 0.111,-0.712C0.105,-0.699 0.105,-0.684 0.111,-0.672C0.116,-0.66 0.128,-0.65 0.142,-0.646L0.146,-0.644L0.295,-0.644L0.295,-0.096L0.146,-0.095L0.142,-0.094C0.12,-0.088 0.107,-0.07 0.107,-0.048C0.107,-0.026 0.12,-0.008 0.142,-0.002L0.147,-0L0.343,-0C0.53,-0 0.539,-0 0.543,-0.001C0.545,-0.002 0.549,-0.004 0.552,-0.005C0.562,-0.01 0.569,-0.017 0.574,-0.027C0.579,-0.038 0.579,-0.023 0.579,-0.166C0.579,-0.26 0.579,-0.293 0.578,-0.296C0.577,-0.302 0.575,-0.309 0.572,-0.314C0.569,-0.319 0.562,-0.326 0.557,-0.33C0.548,-0.335 0.536,-0.338 0.526,-0.337C0.519,-0.336 0.512,-0.333 0.507,-0.331C0.502,-0.328 0.492,-0.318 0.49,-0.314C0.489,-0.312 0.487,-0.308 0.486,-0.306C0.483,-0.297 0.483,-0.301 0.483,-0.195L0.483,-0.096L0.39,-0.096L0.39,-0.74L0.27,-0.74C0.204,-0.74 0.148,-0.739 0.147,-0.739Z" style="fill:rgb(242,242,242);fill-rule:nonzero;"/>
            </g>
            <g transform="matrix(16.6667,0,0,16.6667,180.549,493.098)">
                <path d="M0.147,-0.739C0.131,-0.736 0.117,-0.726 0.111,-0.712C0.105,-0.699 0.105,-0.684 0.111,-0.672C0.116,-0.66 0.128,-0.65 0.142,-0.646L0.146,-0.644L0.483,-0.644L0.483,-0.418L0.343,-0.418C0.252,-0.418 0.2,-0.418 0.195,-0.417C0.173,-0.415 0.153,-0.406 0.137,-0.391C0.122,-0.377 0.113,-0.361 0.108,-0.34L0.107,-0.334L0.107,0L0.321,0C0.502,0 0.535,-0 0.539,-0.001C0.562,-0.005 0.578,-0.025 0.578,-0.048C0.578,-0.071 0.562,-0.091 0.539,-0.095C0.536,-0.096 0.509,-0.096 0.369,-0.096L0.202,-0.096L0.202,-0.209C0.202,-0.271 0.202,-0.322 0.203,-0.322C0.203,-0.322 0.269,-0.322 0.35,-0.322L0.497,-0.323L0.504,-0.324C0.522,-0.329 0.536,-0.337 0.549,-0.349C0.565,-0.364 0.575,-0.383 0.578,-0.406C0.579,-0.415 0.579,-0.647 0.578,-0.656C0.572,-0.696 0.545,-0.727 0.507,-0.737C0.494,-0.74 0.502,-0.74 0.32,-0.74C0.226,-0.74 0.148,-0.739 0.147,-0.739Z" style="fill:rgb(242,242,242);fill-rule:nonzero;"/>
            </g>
            <g transform="matrix(16.6667,0,0,16.6667,192.465,493.098)">
                <path d="M0.107,-0.392C0.107,-0.015 0.106,-0.041 0.11,-0.031C0.112,-0.025 0.115,-0.021 0.121,-0.014C0.127,-0.008 0.132,-0.005 0.138,-0.003C0.151,0.002 0.163,0.001 0.176,-0.005C0.182,-0.008 0.187,-0.012 0.192,-0.018C0.195,-0.022 0.199,-0.03 0.201,-0.036C0.202,-0.039 0.202,-0.048 0.202,-0.221L0.202,-0.402L0.445,-0.403L0.449,-0.404C0.465,-0.409 0.477,-0.42 0.482,-0.436C0.484,-0.441 0.484,-0.442 0.484,-0.45C0.484,-0.459 0.484,-0.46 0.482,-0.465C0.477,-0.481 0.465,-0.492 0.449,-0.497L0.445,-0.498L0.202,-0.498L0.202,-0.644L0.369,-0.644C0.509,-0.644 0.536,-0.644 0.539,-0.645C0.562,-0.649 0.578,-0.669 0.578,-0.692C0.578,-0.715 0.562,-0.735 0.539,-0.739C0.535,-0.74 0.502,-0.74 0.321,-0.74L0.107,-0.74L0.107,-0.392Z" style="fill:rgb(242,242,242);fill-rule:nonzero;"/>
            </g>
            <g transform="matrix(16.6667,0,0,16.6667,204.382,493.098)">
                <path d="M0.147,-0.739C0.131,-0.736 0.117,-0.726 0.111,-0.712C0.105,-0.699 0.105,-0.684 0.111,-0.672C0.116,-0.66 0.128,-0.65 0.142,-0.646C0.146,-0.644 0.147,-0.644 0.173,-0.644L0.201,-0.644L0.201,-0.096L0.173,-0.096C0.147,-0.095 0.146,-0.095 0.142,-0.094C0.12,-0.088 0.107,-0.07 0.107,-0.048C0.107,-0.026 0.12,-0.008 0.142,-0.002L0.146,-0L0.242,-0C0.335,-0 0.339,-0 0.348,-0.001C0.375,-0.005 0.4,-0.015 0.421,-0.032C0.432,-0.042 0.445,-0.055 0.452,-0.068C0.454,-0.071 0.479,-0.12 0.508,-0.177C0.566,-0.292 0.567,-0.294 0.573,-0.318C0.577,-0.336 0.579,-0.349 0.579,-0.37C0.579,-0.391 0.577,-0.404 0.573,-0.422C0.567,-0.446 0.566,-0.448 0.508,-0.563C0.479,-0.62 0.454,-0.668 0.453,-0.671C0.43,-0.709 0.39,-0.734 0.346,-0.739C0.339,-0.74 0.325,-0.74 0.244,-0.74C0.192,-0.74 0.148,-0.739 0.147,-0.739ZM0.342,-0.643C0.352,-0.64 0.362,-0.633 0.368,-0.626C0.371,-0.622 0.377,-0.61 0.451,-0.463C0.471,-0.424 0.474,-0.416 0.477,-0.409C0.482,-0.392 0.484,-0.377 0.483,-0.361C0.482,-0.349 0.48,-0.342 0.477,-0.331C0.474,-0.324 0.471,-0.316 0.451,-0.277C0.377,-0.13 0.371,-0.118 0.368,-0.114C0.364,-0.109 0.357,-0.104 0.351,-0.101C0.342,-0.096 0.341,-0.096 0.318,-0.096L0.296,-0.096L0.296,-0.644L0.318,-0.644C0.335,-0.644 0.339,-0.643 0.342,-0.643Z" style="fill:rgb(242,242,242);fill-rule:nonzero;"/>
            </g>
            <g transform="matrix(16.6667,0,0,16.6667,216.299,493.098)">
                <path d="M0.107,-0.392C0.107,-0.015 0.106,-0.041 0.11,-0.031C0.112,-0.025 0.115,-0.021 0.121,-0.014C0.127,-0.008 0.132,-0.005 0.138,-0.003C0.151,0.002 0.163,0.001 0.176,-0.005C0.188,-0.011 0.197,-0.022 0.201,-0.036C0.202,-0.039 0.202,-0.052 0.202,-0.304L0.203,-0.569L0.452,-0L0.579,0L0.579,-0.35C0.579,-0.685 0.579,-0.7 0.578,-0.704C0.573,-0.718 0.564,-0.729 0.552,-0.735C0.54,-0.741 0.528,-0.741 0.515,-0.737C0.509,-0.735 0.504,-0.732 0.499,-0.727C0.491,-0.72 0.488,-0.714 0.484,-0.703C0.484,-0.7 0.483,-0.68 0.483,-0.435L0.483,-0.17L0.364,-0.44L0.239,-0.725L0.233,-0.739L0.107,-0.74L0.107,-0.392Z" style="fill:rgb(242,242,242);fill-rule:nonzero;"/>
            </g>
        </g>
        <g transform="matrix(1,0,0,1,-10.5195,-77.7351)">
            <g transform="matrix(16.6667,0,0,16.6667,144.799,493.098)">
                <path d="M0.146,-0.739C0.135,-0.737 0.129,-0.733 0.121,-0.725C0.115,-0.719 0.112,-0.715 0.11,-0.708C0.106,-0.698 0.106,-0.695 0.106,-0.643L0.106,-0.595L0.295,-0.353L0.295,-0.199C0.295,-0.032 0.294,-0.04 0.298,-0.031C0.3,-0.025 0.303,-0.021 0.309,-0.014C0.315,-0.008 0.319,-0.005 0.326,-0.003C0.339,0.002 0.351,0.001 0.364,-0.005C0.373,-0.01 0.38,-0.017 0.385,-0.027C0.391,-0.038 0.39,-0.02 0.39,-0.197L0.391,-0.354L0.461,-0.443L0.555,-0.564L0.579,-0.595L0.579,-0.648C0.579,-0.707 0.579,-0.703 0.574,-0.713C0.569,-0.723 0.562,-0.73 0.552,-0.735C0.54,-0.741 0.528,-0.741 0.515,-0.737C0.508,-0.734 0.504,-0.732 0.498,-0.725C0.491,-0.719 0.489,-0.715 0.486,-0.709C0.483,-0.7 0.483,-0.698 0.483,-0.662L0.483,-0.628L0.414,-0.539C0.375,-0.49 0.344,-0.449 0.343,-0.449C0.343,-0.448 0.33,-0.464 0.273,-0.538L0.203,-0.627L0.202,-0.664C0.202,-0.705 0.202,-0.703 0.197,-0.713C0.192,-0.723 0.185,-0.73 0.176,-0.735C0.173,-0.736 0.169,-0.738 0.167,-0.738C0.162,-0.74 0.151,-0.74 0.146,-0.739Z" style="fill:rgb(242,242,242);fill-rule:nonzero;"/>
            </g>
            <g transform="matrix(16.6667,0,0,16.6667,156.715,493.098)">
                <path d="M0.147,-0.739C0.131,-0.736 0.117,-0.726 0.111,-0.712C0.105,-0.699 0.105,-0.684 0.111,-0.672C0.116,-0.66 0.128,-0.65 0.142,-0.646L0.146,-0.644L0.297,-0.644C0.379,-0.644 0.447,-0.644 0.447,-0.644C0.447,-0.643 0.188,-0.2 0.116,-0.077L0.107,-0.061L0.107,0L0.321,0C0.502,0 0.535,-0 0.539,-0.001C0.562,-0.005 0.578,-0.025 0.578,-0.048C0.578,-0.071 0.562,-0.091 0.539,-0.095C0.536,-0.096 0.512,-0.096 0.386,-0.096C0.305,-0.096 0.238,-0.096 0.238,-0.096C0.238,-0.096 0.479,-0.51 0.57,-0.664L0.579,-0.679L0.579,-0.74L0.364,-0.74C0.246,-0.74 0.148,-0.739 0.147,-0.739Z" style="fill:rgb(242,242,242);fill-rule:nonzero;"/>
            </g>
            <g transform="matrix(16.6667,0,0,16.6667,168.632,493.098)">
                <path d="M0.147,-0.739C0.131,-0.736 0.117,-0.726 0.111,-0.712C0.105,-0.7 0.105,-0.685 0.11,-0.673C0.111,-0.671 0.151,-0.602 0.199,-0.52C0.247,-0.438 0.287,-0.37 0.287,-0.37C0.287,-0.37 0.247,-0.302 0.199,-0.22C0.151,-0.137 0.111,-0.069 0.11,-0.067C0.107,-0.058 0.105,-0.046 0.108,-0.037C0.115,-0.009 0.144,0.007 0.171,-0.003C0.18,-0.006 0.188,-0.013 0.194,-0.021C0.195,-0.024 0.229,-0.082 0.27,-0.15L0.342,-0.275L0.344,-0.273L0.416,-0.149L0.49,-0.024C0.506,0.003 0.541,0.008 0.563,-0.013C0.57,-0.019 0.575,-0.027 0.577,-0.036C0.58,-0.046 0.579,-0.058 0.574,-0.067C0.574,-0.069 0.534,-0.137 0.486,-0.22C0.438,-0.302 0.398,-0.37 0.398,-0.37C0.398,-0.37 0.438,-0.438 0.486,-0.52C0.534,-0.602 0.574,-0.671 0.574,-0.673C0.579,-0.682 0.58,-0.694 0.577,-0.703C0.575,-0.713 0.57,-0.72 0.563,-0.727C0.541,-0.748 0.506,-0.742 0.49,-0.716L0.416,-0.59L0.344,-0.467L0.342,-0.465L0.27,-0.589C0.229,-0.658 0.195,-0.716 0.194,-0.718C0.19,-0.723 0.184,-0.73 0.179,-0.733C0.17,-0.738 0.157,-0.741 0.147,-0.739Z" style="fill:rgb(242,242,242);fill-rule:nonzero;"/>
            </g>
        </g>
        <g transform="matrix(3.31649e-17,0.541624,-1.20732,7.3927e-17,768.444,223.934)">
            <path d="M66.856,282.489C66.856,281.839 65.679,281.311 64.23,281.311C62.78,281.311 61.604,281.839 61.604,282.489L61.604,315.047C61.604,315.697 62.78,316.225 64.23,316.225C65.679,316.225 66.856,315.697 66.856,315.047L66.856,282.489Z" style="fill:rgb(242,242,242);"/>
        </g>
        <g transform="matrix(3.31649e-17,0.541624,-1.20732,7.3927e-17,768.444,374.409)">
            <path d="M66.856,282.489C66.856,281.839 65.679,281.311 64.23,281.311C62.78,281.311 61.604,281.839 61.604,282.489L61.604,315.047C61.604,315.697 62.78,316.225 64.23,316.225C65.679,316.225 66.856,315.697 66.856,315.047L66.856,282.489Z" style="fill:rgb(242,242,242);"/>
        </g>
    </g>
    <defs>
        <linearGradient id="_Linear1" x1="0" y1="0" x2="1" y2="0" gradientUnits="userSpaceOnUse" gradientTransform="matrix(85.8412,0,0,103.577,52.6047,289.578)"><stop offset="0" style="stop-color:rgb(100,100,100);stop-opacity:1"/><stop offset="0.05" style="stop-color:rgb(179,181,179);stop-opacity:1"/><stop offset="0.89" style="stop-color:rgb(205,207,205);stop-opacity:1"/><stop offset="0.97" style="stop-color:rgb(236,237,236);stop-opacity:1"/><stop offset="1" style="stop-color:rgb(181,183,181);stop-opacity:1"/></linearGradient>
    </defs>
</svg>
